<svg xmlns="http://www.w3.org/2000/svg" viewBox="0 0 64 64" role="img" aria-labelledby="title">
  <title>Signal Atlas</title>
  <defs>
    <radialGradient id="bg" cx="50%" cy="46%" r="70%">
      <stop offset="0%" stop-color="#123449" />
      <stop offset="72%" stop-color="#06131c" />
      <stop offset="100%" stop-color="#02070d" />
    </radialGradient>
    <linearGradient id="line" x1="0%" y1="0%" x2="100%" y2="100%">
      <stop offset="0%" stop-color="#d8fbff" />
      <stop offset="100%" stop-color="#66eaff" />
    </linearGradient>
  </defs>
  <rect width="64" height="64" rx="16" fill="#02070d" />
  <circle cx="32" cy="32" r="20" fill="url(#bg)" stroke="rgba(137,239,255,0.55)" stroke-width="1.5" />
  <path d="M16 32h32" stroke="rgba(137,239,255,0.22)" stroke-width="1" />
  <path d="M32 12c7.4 5 11.2 12 11.2 20S39.4 47 32 52" fill="none" stroke="rgba(137,239,255,0.22)" stroke-width="1" />
  <path d="M23 22c4-3 10-3 14 0 4 3 5 8 3 12-2 5-7 8-12 8-4.5 0-8.8-2-11-5.8" fill="none" stroke="url(#line)" stroke-width="2" stroke-linecap="round" />
  <circle cx="23" cy="22" r="3" fill="#ecfdff" />
  <circle cx="40" cy="34" r="3" fill="#8fefff" />
  <circle cx="28" cy="42" r="2.4" fill="#8fefff" />
</svg>
